 Video
     Format : MPEG-4 Visual
     Format profile : Simple@L1
     Format settings, BVOP : No
     Format settings, QPel : No
     Format settings, GMC : No warppoints
     Format settings, Matrix : Default
     Codec ID : XVID
     Codec ID/Hint : XviD
     Duration : 1h 26mn
     Bit rate : 1 200 Kbps
     Width : 1 088 pixels
     Height : 448 pixels
     Display aspect ratio : 2.429
     Frame rate : 23.976 fps
     Resolution : 24 bits
     Colorimetry : 4:2:0
     Scan type : Progressive
     Bits/(Pixel*Frame) : 0.103
     Stream size : 744 MiB (90%)
     Writing library : Lavc51.44.0
  Audio
     Format : MPEG Audio
     Format version : Version 1
     Format profile : Layer 3
     Codec ID : 55
     Codec ID/Hint : MP3
     Duration : 1h 26mn
     Bit rate mode : Constant
     Bit rate : 128 Kbps
     Channel(s) : 2 channels
     Sampling rate : 44.1 KHz
     Resolution : 16 bits
     Stream size : 79.4 MiB (10%)
     Alignment : Aligned on interleaves
     Interleave, duration : 26 ms (0.63 video frame)
     Interleave, preload duration : 522 ms
     Writing library : LAME3.98